# xmcd CD database file
#
# Track frame offsets:
#	150
#	16758
#	27869
#	46458
#	62745
#	87199
#	112596
#	130161
#	145060
#	159311
#
# Disc length: 2297 seconds
#
# Revision: 0
# Processed by: cddbd v1.5.2PL0 Copyright (c) Steve Scherf et al.
# Submitted via: Feurio! 1.68 - http://www.feurio.com
#
DISCID=7008f70a
DTITLE=John D'Amato - Ain't no big deal
DYEAR=1900
DGENRE=Blues Rock
TTITLE0=Got no shame
TTITLE1=What's up?
TTITLE2=Mojo working
TTITLE3=Lift me up
TTITLE4=Stormy Monday
TTITLE5=Black Orpheus
TTITLE6=Walk with me
TTITLE7=Folsom prison
TTITLE8=Ain't no big deal
TTITLE9=double stop me
EXTD=
EXTT0=
EXTT1=
EXTT2=
EXTT3=
EXTT4=
EXTT5=
EXTT6=
EXTT7=
EXTT8=
EXTT9=
PLAYORDER=
